<svg xmlns="http://www.w3.org/2000/svg" fill="none" viewBox="0 0 29 28">
  <symbol id="floppy_footer">
  <path fill="currentColor" d="M.5 0h2.15385v2.15385H.5z"/>
  <path fill="currentColor" d="M.5 2.15381h2.15385v2.15385H.5z"/>
  <path fill="currentColor" d="M.5 4.30762h2.15385v2.15385H.5z"/>
  <path fill="currentColor" d="M.5 6.46143h2.15385v2.15385H.5z"/>
  <path fill="currentColor" d="M.5 8.61523h2.15385v2.15385H.5z"/>
  <path fill="currentColor" d="M.5 10.769h2.15385v2.15385H.5zm0 2.1543h2.15385v2.15385H.5z"/>
  <path fill="currentColor" d="M.5 15.0767h2.15385v2.15385H.5zm0 2.1543h2.15385v2.15385H.5z"/>
  <path fill="currentColor" d="M.5 19.3848h2.15385v2.15385H.5z"/>
  <path fill="currentColor" d="M.5 21.5386h2.15385v2.15385H.5z"/>
  <path fill="currentColor" d="M.5 23.6924h2.15385v2.15385H.5z"/>
  <path fill="currentColor" d="M.5 25.8462h2.15385v2.15385H.5zM24.1927 0v2.15385h-2.15385V0z"/>
  <path fill="currentColor" d="M22.0391 0v2.15385h-2.15385V0zm-2.155 0v2.15385h-2.15385V0z"/>
  <path fill="currentColor" d="M17.7305 0v2.15385h-2.15385V0z"/>
  <path fill="currentColor" d="M15.5768 0v2.15385h-2.15385V0z"/>
  <path fill="currentColor" d="M13.4232 0v2.15385h-2.15385V0z"/>
  <path fill="currentColor" d="M11.2695 0v2.15385H9.11565V0z"/>
  <path fill="currentColor" d="M9.11589 0v2.15385H6.96204V0zM6.96094 0v2.15385H4.80709V0z"/>
  <path fill="currentColor" d="M4.8073 0v2.15385H2.65345V0zm21.5391 2.15381v2.15385h-2.15385V2.15381zM6.96094 4.30762v2.15385H4.80709V4.30762z"/>
  <path fill="currentColor" d="M6.96094 2.15381v2.15385H4.80709V2.15381zm0 4.30762v2.15385H4.80709V6.46143zM22.0391 4.30762v2.15385h-2.15385V4.30762z"/>
  <path fill="currentColor" d="M22.0391 2.15381v2.15385h-2.15385V2.15381zm0 4.30762v2.15385h-2.15385V6.46143zm-4.3086-2.15381v2.15385h-2.15385V4.30762z"/>
  <path fill="currentColor" d="M17.7305 2.15381v2.15385h-2.15385V2.15381zm0 4.30762v2.15385h-2.15385V6.46143zm4.3086 2.1538v2.15385h-2.15385V8.61523z"/>
  <path fill="currentColor" d="M19.8841 8.61523v2.15385h-2.15385V8.61523z"/>
  <path fill="currentColor" d="M17.7305 8.61523v2.15385h-2.15385V8.61523z"/>
  <path fill="currentColor" d="M15.5768 8.61523v2.15385h-2.15385V8.61523z"/>
  <path fill="currentColor" d="M13.4232 8.61523v2.15385h-2.15385V8.61523z"/>
  <path fill="currentColor" d="M11.2695 8.61523v2.15385H9.11565V8.61523z"/>
  <path fill="currentColor" d="M9.11589 8.61523v2.15385H6.96204V8.61523zm-2.15495 0v2.15385H4.80709V8.61523zM24.1927 15.0767v2.15385h-2.15385V15.0767z"/>
  <path fill="currentColor" d="M22.0391 15.0767v2.15385h-2.15385V15.0767zm-2.155 0v2.15385h-2.15385V15.0767z"/>
  <path fill="currentColor" d="M17.7305 15.0767v2.15385h-2.15385V15.0767z"/>
  <path fill="currentColor" d="M15.5768 15.0767v2.15385h-2.15385V15.0767z"/>
  <path fill="currentColor" d="M13.4232 15.0767v2.15385h-2.15385V15.0767z"/>
  <path fill="currentColor" d="M11.2695 15.0767v2.15385H9.11565V15.0767z"/>
  <path fill="currentColor" d="M9.11589 15.0767v2.15385H6.96204V15.0767zm-2.15495 0v2.15385H4.80709V15.0767zM24.1927 17.231v2.15385h-2.15385V17.231zm-17.23176 0v2.15385H4.80709V17.231z"/>
  <path fill="currentColor" d="M24.1927 19.3848v2.15385h-2.15385V19.3848zm-17.23176 0v2.15385H4.80709V19.3848z"/>
  <path fill="currentColor" d="M24.1927 21.5386v2.15385h-2.15385V21.5386zm-17.23176 0v2.15385H4.80709V21.5386z"/>
  <path fill="currentColor" d="M6.96094 23.6924v2.15385H4.80709V23.6924zm17.23176 0v2.15385h-2.15385V23.6924z"/>
  <path fill="currentColor" d="M26.3464 25.8462v2.15385h-2.15385V25.8462z"/>
  <path fill="currentColor" d="M24.1927 25.8462v2.15385h-2.15385V25.8462z"/>
  <path fill="currentColor" d="M22.0391 25.8462v2.15385h-2.15385V25.8462zm-2.155 0v2.15385h-2.15385V25.8462z"/>
  <path fill="currentColor" d="M17.7305 25.8462v2.15385h-2.15385V25.8462z"/>
  <path fill="currentColor" d="M15.5768 25.8462v2.15385h-2.15385V25.8462z"/>
  <path fill="currentColor" d="M13.4232 25.8462v2.15385h-2.15385V25.8462z"/>
  <path fill="currentColor" d="M11.2695 25.8462v2.15385H9.11565V25.8462z"/>
  <path fill="currentColor" d="M9.11589 25.8462v2.15385H6.96204V25.8462zm-2.15495 0v2.15385H4.80709V25.8462z"/>
  <path fill="currentColor" d="M4.8073 25.8462v2.15385H2.65345V25.8462zM28.5 28h-2.15385v-2.15385H28.5z"/>
  <path fill="currentColor" d="M28.5 25.8462h-2.15385v-2.15385H28.5z"/>
  <path fill="currentColor" d="M28.5 23.6924h-2.15385v-2.15385H28.5z"/>
  <path fill="currentColor" d="M28.5 21.5386h-2.15385v-2.15385H28.5z"/>
  <path fill="currentColor" d="M28.5 19.3848h-2.15385v-2.15385H28.5z"/>
  <path fill="currentColor" d="M28.5 17.231h-2.15385v-2.15385H28.5zm0-2.1543h-2.15385v-2.15385H28.5z"/>
  <path fill="currentColor" d="M28.5 12.9233h-2.15385v-2.15385H28.5zm0-2.1543h-2.15385V8.61515H28.5z"/>
  <path fill="currentColor" d="M28.5 8.61523h-2.15385V6.46138H28.5z"/>
  <path fill="currentColor" d="M28.5 6.46143h-2.15385V4.30758H28.5z"/>
  </symbol>
</svg>